<?xml version="1.0" ?><svg style="enable-background:new 0 0 32 32;" version="1.1" viewBox="0 0 32 32" xml:space="preserve" xmlns="http://www.w3.org/2000/svg" xmlns:xlink="http://www.w3.org/1999/xlink"><style type="text/css">
	.st0{fill:#B9F3F8;}
	.st1{fill:#55C1FA;}
	.st2{fill:#FBC34E;}
	.st3{opacity:0.05;}
	.st4{fill:#FFFFFF;}
	.st5{fill:#7A442A;}
	.st6{fill:#C77C58;}
	.st7{fill:#E4EDF2;}
	.st8{fill:#F25949;}
	.st9{fill:#FA9B55;}
	.st10{fill:#E5A533;}
	.st11{fill:#6FA7AB;}
	.st12{fill:#20A56C;}
	.st13{fill:#F2C09E;}
	.st14{fill:#F4E8D0;}
	.st15{fill:#F2AB38;}
	.st16{fill:#393B3D;}
	.st17{fill:#ACE4E5;}
	.st18{fill:#659899;}
	.st19{fill:#E3FAFC;}
	.st20{fill:#DDF1F2;}
	.st21{fill:#16F293;}
	.st22{fill:#5C3320;}
	.st23{fill:#AD410D;}
	.st24{fill:#8B9CA5;}
	.st25{fill:#B26C50;}
	.st26{fill:none;}
	.st27{fill:#DAE1E5;}
	.st28{fill:#425158;}
	.st29{fill:#829299;}
	.st30{fill:#A5795C;}
	.st31{fill:#7A7468;}
	.st32{fill:#7B3ABF;}
	.st33{fill:#B564FF;}
	.st34{fill:#2B617D;}
</style><g id="Magnifier"/><g id="Gear"/><g id="Home"/><g id="Shield"/><g id="Star"/><g id="Flash"/><g id="Heart"/><g id="Hearts"/><g id="Shopping_Bag"/><g id="Token"/><g id="Warning"/><g id="Warning_B"/><g id="Chat"/><g id="Diamond"/><g id="Hanger"/><g id="Warning_C"/><g id="Potion"/><g id="Hourglass"/><g id="Trophy"/><g id="Bomb"/><g id="Gem"/><g id="Spell_Book"/><g id="User"/><g id="Users"/><g id="Treasure_Chest"><g><path class="st6" d="M24,6h-1v8h7v-2C30,8.69,27.31,6,24,6z"/><path class="st6" d="M16.781,18.625C16.591,18.862,16.304,19,16,19s-0.591-0.138-0.781-0.375L13.12,16H2v8c0,1.1,0.9,2,2,2h24    c1.1,0,2-0.9,2-2v-8H18.88L16.781,18.625z"/><path class="st6" d="M9,6H8c-3.31,0-6,2.69-6,6v2h7V6z"/><path class="st6" d="M13.12,14l2.1-2.625c0.379-0.475,1.183-0.475,1.562,0L18.88,14H21V6H11v8H13.12z"/><path class="st22" d="M12.819,15.625c-0.292-0.365-0.292-0.884,0-1.249L13.12,14H11V6H9v8H2v2h11.12L12.819,15.625z"/><path class="st22" d="M23,6h-2v8h-2.12l0.3,0.375c0.292,0.365,0.292,0.884,0,1.249L18.88,16H30v-2h-7V6z"/><path class="st0" d="M15.219,11.375L13.12,14l-0.3,0.375c-0.292,0.365-0.292,0.884,0,1.249L13.12,16l2.1,2.625    C15.409,18.862,15.696,19,16,19s0.591-0.138,0.781-0.375L18.88,16l0.3-0.375c0.292-0.365,0.292-0.884,0-1.249L18.88,14l-2.1-2.625    C16.402,10.901,15.598,10.901,15.219,11.375z"/></g></g><g id="Treasure_Chest_Open"/><g id="Sack"/><g id="Fishing_Pin"/><g id="Sword"/><g id="Sword_And_Shield"/><g id="Backpack"/><g id="Key"/><g id="Meat"/><g id="Skull"/><g id="Store"/><g id="Helmet"/><g id="Anvil"/><g id="Axe"/><g id="Spear"/><g id="Food"/><g id="Bow"/><g id="Scroll"/><g id="Armor"/><g id="Hat"/><g id="Wand"/><g id="Map"/><g id="Mushroom"/><g id="Feather"/><g id="Wings"/><g id="Fish"/></svg>